# AST/ASF file generated using VICON BodyLanguage
# -----------------------------------------------
:version 1.10
:name VICON
:units
  mass 1.0
  length 0.45
  angle deg
:documentation
   .ast/.asf automatically generated from VICON data using
   VICON BodyBuilder and BodyLanguage model FoxedUp or BRILLIANT.MOD
:root
   order TX TY TZ RX RY RZ
   axis XYZ
   position 0 0 0  
   orientation 0 0 0 
:bonedata
  begin
     id 1 
     name lhipjoint
     direction 0.630305 -0.712092 0.309259 
     length 2.29033 
     axis 0 0 0  XYZ
  end
  begin
     id 2 
     name lfemur
     direction 0.34202 -0.939693 0  
     length 6.43538  
     axis 0 0 20  XYZ
    dof rx ry rz
    limits (-160.0 20.0)
           (-70.0 70.0)
           (-60.0 70.0)
  end
  begin
     id 3 
     name ltibia
     direction 0.34202 -0.939693 0   
     length 7.43097   
     axis 0 0 20   XYZ
    dof rx
    limits (-10.0 170.0)
  end
  begin
     id 4 
     name lfoot
     direction 0.0334653 -0.0919451 0.995202   
     length 1.78438   
     axis -90 7.62852e-016 20   XYZ
    dof rx rz
    limits (-45.0 90.0)
           (-70.0 20.0)
  end
  begin
     id 5 
     name ltoes
     direction 1.53535e-011 -4.21933e-011 1   
     length 0.90832   
     axis -90 7.62852e-016 20   XYZ
    dof rx
    limits (-90.0 20.0)
  end
  begin
     id 6 
     name rhipjoint
     direction -0.682059 -0.67077 0.291312   
     length 2.43143  
     axis 0 0 0  XYZ 
  end
  begin
     id 7 
     name rfemur
     direction -0.34202 -0.939693 0   
     length 6.63488   
     axis 0 0 -20   XYZ
    dof rx ry rz
    limits (-160.0 20.0)
           (-70.0 70.0)
           (-70.0 60.0)
  end
  begin
     id 8 
     name rtibia
     direction -0.34202 -0.939693 0   
     length 6.86532   
     axis 0 0 -20   XYZ
    dof rx
    limits (-10.0 170.0)
 end
 begin
     id 9 
     name rfoot
     direction -0.105199 -0.289033 0.951521   
     length 1.77126  
     axis -90 -7.62852e-016 -20   XYZ
    dof rx rz
    limits (-45.0 90.0)
           (-20.0 70.0)
  end
  begin
     id 10 
     name rtoes
     direction -1.53551e-011 -4.21978e-011 1   
     length 0.889273   
     axis -90 -7.62852e-016 -20   XYZ
    dof rx
    limits (-90.0 20.0)
  end
  begin
     id 11 
     name lowerback
     direction -0.0514305 0.998089 0.034245   
     length 2.02077   
     axis 0 0 0   XYZ
    dof rx ry rz
    limits (-20.0 45.0)
           (-30.0 30.0)
           (-30.0 30.0)
  end
  begin
     id 12 
     name upperback
     direction 0.0203189 0.999449 -0.0262315   
     length 2.01413   
     axis 0 0 0   XYZ
    dof rx ry rz
    limits (-20.0 45.0)
           (-30.0 30.0)
           (-30.0 30.0)
  end
  begin
     id 13 
     name thorax
     direction 0.0452736 0.998142 -0.0407729   
     length 2.02986   
     axis 0 0 0   XYZ
    dof rx ry rz
    limits (-20.0 45.0)
           (-30.0 30.0)
           (-30.0 30.0)
  end
  begin
     id 14 
     name lowerneck
     direction -0.0180464 0.999645 -0.0195774   
     length 1.59034   
     axis 0 0 0   XYZ
    dof rx ry rz
    limits (-20.0 45.0)
           (-30.0 30.0)
           (-30.0 30.0)
  end
  begin
     id 15 
     name upperneck
     direction 0.0732272 0.979935 -0.18538   
     length 1.57486   
     axis 0 0 0   XYZ
    dof rx ry rz
    limits (-20.0 45.0)
           (-30.0 30.0)
           (-30.0 30.0)
  end
  begin
     id 16
     name head
     direction 0.0252963 0.997909 -0.059472  
     length 1.60334  
     axis 0 0 0   XYZ
    dof rx ry rz
    limits (-20.0 45.0)
           (-30.0 30.0)
           (-30.0 30.0)
  end
  begin
     id 17 
     name lclavicle
     direction 0.943819 0.330449 0.00315172  
     length 3.50322  
     axis 0 0 0   XYZ
    dof ry rz
    limits (-20.0 10.0)
           (0.0 20.0)
  end
  begin
     id 18 
     name lhumerus
     direction 1 -4.48949e-011 2.22502e-028   
     length 4.63208   
     axis 180 -30 -90   XYZ
    dof rx ry rz
    limits (-60.0 90.0)
           (-90.0 90.0)
           (-90.0 90.0)
  end
  begin
     id 19
     name lradius
     direction 1 -4.48967e-011 -4.10197e-027   
     length 3.41924   
     axis 180 -30 -90   XYZ
    dof rx
    limits (-10.0 170.0)
  end
  begin
     id 20
     name lwrist
     direction 1 -4.48987e-011 -1.24264e-027   
     length 1.70962   
     axis 2.50585e-015 90 90   XYZ
    dof ry
    limits (-180.0 0.0)
 end
  begin
     id 21 
     name lhand
     direction 1 -4.48983e-011 -2.48528e-027   
     length 0.62537   
     axis 1.58582e-015 90 90   XYZ
    dof rx rz
    limits (-90.0 90.0)
           (-45.0 45.0)
  end
  begin
     id 22 
     name lfingers
     direction 1 -4.48896e-011 -4.97056e-027   
     length 0.50419   
     axis 3.17164e-015 90 90   XYZ
    dof rx
    limits (0.0 90.0)
  end
  begin
     id 23
     name lthumb
     direction 0.707107 -6.34803e-011 0.707107   
     length 0.723919   
     axis -90 45 2.85299e-015   XYZ
    dof rx rz
    limits (-45.0 45.0)
           (-45.0 45.0)
  end
  begin
     id 24 
     name rclavicle
     direction -0.964499 0.260664 -0.0423695   
     length 3.91997  
     axis 0 0 0   XYZ 
    dof ry rz
    limits (-10.0 20.0)
           (-20.0 0.0)
  end
  begin
     id 25 
     name rhumerus
     direction -1 -4.48957e-011 -1.98656e-027  
     length 4.4064   
     axis 180 30 90   XYZ
    dof rx ry rz
    limits (-90.0 60.0)
           (-90.0 90.0)
           (-90.0 90.0)
  end
  begin
     id 26 
     name rradius
     direction -1 -4.48968e-011 1.96972e-027   
     length 3.44675   
     axis 180 30 90   XYZ
    dof rx
    limits (-10.0 170.0)
  end
  begin
     id 27 
     name rwrist
     direction -1 -4.48974e-011 -1.24264e-027   
     length 1.72338   
     axis 2.50585e-015 -90 -90   XYZ
    dof ry
    limits (-180.0 0.0)
  end
  begin
     id 28
     name rhand
     direction -1 -4.48901e-011 -2.48528e-027   
     length 0.513674   
     axis 1.58582e-015 -90 -90   XYZ
    dof rx rz
    limits (-90.0 90.0)
           (-45.0 45.0)
  end
  begin
     id 29
     name rfingers
     direction -1 -4.48946e-011 -4.97056e-027   
     length 0.414137   
     axis 3.17164e-015 -90 -90   XYZ
    dof rx
    limits (0.0 90.0)
  end
  begin
     id 30
     name rthumb
     direction -0.707107 -6.34859e-011 0.707107   
     length 0.59462   
     axis -90 -45 -2.85299e-015   XYZ
    dof rx rz
    limits (-45.0 45.0)
           (-45.0 45.0)
  end
:hierarchy
  begin
    root lhipjoint rhipjoint lowerback
    lhipjoint lfemur
    lfemur ltibia
    ltibia lfoot
    lfoot ltoes
    rhipjoint rfemur
    rfemur rtibia
    rtibia rfoot
    rfoot rtoes
    lowerback upperback
    upperback thorax
    thorax lowerneck lclavicle rclavicle
    lowerneck upperneck
    upperneck head
    lclavicle lhumerus
    lhumerus lradius
    lradius lwrist
    lwrist lhand lthumb
    lhand lfingers
    rclavicle rhumerus
    rhumerus rradius
    rradius rwrist
    rwrist rhand rthumb
    rhand rfingers
  end

#!OML:ASF E:\inclinewalkrobotboard\Project 1\Capture day 1\Session 1\subject1.ASF
:FULLY-SPECIFIED
:DEGREES
128
root 9.76534 16.3892 5.54497 -156.465 -74.7966 -191.757
lowerback -1.59415 2.44447 -7.704
upperback -0.147527 3.38204 2.10268
thorax 0.166966 1.69346 6.5583
lowerneck -3.88213 0.28122 -2.51465
upperneck 3.42709 0.164777 7.12356
head 1.76191 0.183453 2.73824
rclavicle 3.26007e-014 -7.15625e-015
rhumerus -35.3631 7.78844 -94.8271
rradius 102.882
rwrist -1.2086
rhand -22.6218 -31.3235
rfingers 7.12502
rthumb 3.80829 -61.2692
lclavicle 3.26007e-014 -7.15625e-015
lhumerus -39.4585 14.2477 73.9864
lradius 94.141
lwrist 14.8569
lhand -58.7534 -43.8486
lfingers 7.12502
lthumb -30.9643 -16.4403
rfemur -22.0447 -1.21773 -4.22748
rtibia 22.7809
rfoot -16.9106 -15.6161
rtoes -31.0721
lfemur -7.05228 -9.55297 -12.2831
ltibia 10.4669
lfoot -19.4271 18.4959
ltoes -69.215
129
root 9.75265 16.3769 5.44216 -155.271 -74.2256 -192.8
lowerback -1.34575 2.49346 -7.75376
upperback -0.0835353 3.4301 2.22934
thorax 0.0749263 1.71973 6.70916
lowerneck -3.8771 -0.151268 -2.29871
upperneck 3.01096 -0.408713 7.18856
head 1.65577 -0.105764 2.69996
rclavicle 2.18663e-015 9.54166e-015
rhumerus -34.763 8.98812 -94.9107
rradius 103.193
rwrist -0.945388
rhand -22.624 -31.368
rfingers 7.12502
rthumb 3.80619 -61.3137
lclavicle 2.18663e-015 9.54166e-015
lhumerus -39.5991 15.2158 73.1564
lradius 94.0415
lwrist 16.567
lhand -58.4534 -44.9524
lfingers 7.12502
lthumb -30.6783 -17.4901
rfemur -22.4422 -1.00924 -5.44311
rtibia 21.6319
rfoot -15.577 -15.3328
rtoes -26.8316
lfemur -6.959 -9.36055 -12.4765
ltibia 10.4049
lfoot -18.4381 19.8714
ltoes -70.1545
130
root 9.74236 16.3609 5.33027 -153.289 -73.6231 -194.517
lowerback -1.18058 2.42626 -7.95744
upperback -0.0401693 3.331 2.3402
thorax 0.0260186 1.67103 6.93625
lowerneck -3.86926 -0.484241 -2.23541
upperneck 2.53891 -0.831508 7.18776
head 1.52335 -0.323723 2.67199
rclavicle -4.51241e-014 -2.62396e-014
rhumerus -34.0414 10.4162 -95.1122
rradius 103.363
rwrist -0.446831
rhand -22.5657 -31.7479
rfingers 7.12502
rthumb 3.86247 -61.6927
lclavicle -4.51241e-014 -2.62396e-014
lhumerus -39.8471 16.5107 72.1659
lradius 93.8639
lwrist 18.3106
lhand -58.1882 -45.6261
lfingers 7.12502
lthumb -30.4254 -18.1167
rfemur -23.0314 -0.9467 -6.87172
rtibia 20.6991
rfoot -13.6959 -15.019
rtoes -24.7226
lfemur -7.03534 -9.61687 -12.8883
ltibia 10.3732
lfoot -18.1914 20.7914
ltoes -70.3073
131
root 9.73548 16.3397 5.20886 -152.107 -72.9938 -195.491
lowerback -0.849619 2.35579 -7.8628
upperback -0.00518664 3.20912 2.53607
thorax -0.108128 1.61467 7.07594
lowerneck -3.71963 -0.922688 -2.25841
upperneck 1.92839 -1.37792 7.08966
head 1.32749 -0.609967 2.62406
rclavicle 1.8487e-014 -9.54166e-015
rhumerus -33.3275 12.0863 -95.4057
rradius 103.413
rwrist 0.30449
rhand -22.8287 -32.517
rfingers 7.12502
rthumb 3.60849 -62.4662
lclavicle 1.8487e-014 -9.54166e-015
lhumerus -40.2107 18.0245 71.2947
lradius 93.3928
lwrist 19.1425
lhand -58.8611 -44.4705
lfingers 7.12502
lthumb -31.067 -17.0818
rfemur -23.6922 -0.818954 -7.94541
rtibia 20.0766
rfoot -11.4879 -14.6452
rtoes -25.7495
lfemur -7.02012 -9.88813 -13.0625
ltibia 10.373
lfoot -18.6422 21.2668
ltoes -70.0086
132
root 9.72881 16.3115 5.0778 -151.51 -72.2463 -195.978
lowerback -0.41897 2.43252 -7.58122
upperback 0.0713241 3.27702 2.68919
thorax -0.276214 1.65285 7.05749
lowerneck -2.29677 -0.887218 -2.5804
upperneck 0.115203 -1.24004 7.5752
head 0.503682 -0.59804 2.84229
rclavicle 5.1684e-015 1.59028e-015
rhumerus -32.5365 13.4901 -95.7811
rradius 103.408
rwrist 1.18329
rhand -23.0302 -33.0553
rfingers 7.12502
rthumb 3.41398 -63.0077
lclavicle 5.1684e-015 1.59028e-015
lhumerus -40.4499 19.1378 70.622
lradius 92.65
lwrist 19.3813
lhand -60.3856 -42.443
lfingers 7.12502
lthumb -32.5189 -15.3425
rfemur -24.4118 -0.563451 -8.77834
rtibia 19.8016
rfoot -9.78808 -13.871
rtoes -24.9522
lfemur -6.74083 -10.0031 -13.1414
ltibia 10.2444
lfoot -19.1225 21.8202
ltoes -69.8068
133
root 9.72193 16.2773 4.93341 -150.499 -71.3567 -196.915
lowerback -0.00474731 2.51571 -7.47655
upperback 0.188788 3.35934 2.74056
thorax -0.398638 1.6949 7.03337
lowerneck -2.44594 -1.28253 -2.54185
upperneck -0.233857 -1.75285 7.6603
head 0.448518 -0.858014 2.85625
rclavicle 3.61788e-014 -6.36111e-015
rhumerus -31.6234 14.9569 -96.2665
rradius 103.282
rwrist 1.93628
rhand -23.3742 -33.5769
rfingers 7.12502
rthumb 3.08172 -63.5344
lclavicle 3.61788e-014 -6.36111e-015
lhumerus -40.6214 20.2573 69.6091
lradius 91.7553
lwrist 20.5938
lhand -60.9015 -41.2056
lfingers 7.12502
lthumb -33.0096 -14.2074
rfemur -25.2261 -0.34282 -9.70688
rtibia 19.8424
rfoot -7.97386 -12.9621
rtoes -23.8812
lfemur -6.35791 -10.2216 -13.4448
ltibia 10.0403
lfoot -19.3701 22.712
ltoes -69.8557
134
root 9.71832 16.2404 4.77168 -149.525 -70.4309 -197.819
lowerback 0.449416 2.52947 -7.36558
upperback 0.316271 3.34689 2.77308
thorax -0.514727 1.68847 6.98614
lowerneck -2.1691 -1.44245 -2.39202
upperneck -0.937561 -1.93209 7.51937
head 0.184848 -0.966998 2.78138
rclavicle 2.78299e-014 -2.38542e-014
rhumerus -30.6719 16.7885 -96.8239
rradius 103.062
rwrist 2.60733
rhand -23.6222 -34.411
rfingers 7.12502
rthumb 2.84221 -64.3718
lclavicle 2.78299e-014 -2.38542e-014
lhumerus -40.8769 21.9911 67.8055
lradius 90.7072
lwrist 24.2018
lhand -58.5972 -43.4318
lfingers 7.12502
lthumb -30.8154 -15.9953
rfemur -26.1456 0.00691881 -10.4963
rtibia 20.1485
rfoot -5.60936 -12.0943
rtoes -21.2086
lfemur -5.99403 -10.2513 -13.6746
ltibia 9.84687
lfoot -19.3024 23.6522
ltoes -70.1684
135
root 9.71868 16.2006 4.59643 -148.752 -69.5309 -198.533
lowerback 1.00181 2.54924 -7.11566
upperback 0.4478 3.33718 2.78849
thorax -0.67344 1.68425 6.83695
lowerneck -2.84437 -1.89596 -2.21494
upperneck -0.771665 -2.54521 7.18802
head 0.37841 -1.25752 2.62307
rclavicle -6.75868e-014 -5.08889e-014
rhumerus -29.7397 18.7301 -97.4331
rradius 102.906
rwrist 3.30469
rhand -23.1711 -34.9413
rfingers 7.12502
rthumb 3.27786 -64.8959
lclavicle -6.75868e-014 -5.08889e-014
lhumerus -41.0842 23.1304 66.3399
lradius 89.2736
lwrist 26.2192
lhand -58.6259 -43.5555
lfingers 7.12502
lthumb -30.8428 -16.1242
rfemur -27.3047 -0.439614 -10.5965
rtibia 21.2917
rfoot -1.98181 -10.8213
rtoes -30.6518
lfemur -5.66973 -9.73747 -13.6965
ltibia 9.71904
lfoot -19.098 24.0907
ltoes -70.4626
136
root 9.72206 16.1543 4.41095 -147.622 -68.6461 -199.582
lowerback 1.61958 2.52665 -6.94168
upperback 0.543341 3.26763 2.7849
thorax -0.899406 1.65377 6.71013
lowerneck -2.13895 -1.89413 -2.56216
upperneck -2.0643 -2.47462 7.48673
head -0.14389 -1.25983 2.80271
rclavicle 1.31198e-014 2.38542e-014
rhumerus -28.8217 20.8327 -98.0814
rradius 102.805
rwrist 3.80472
rhand -22.3163 -35.1018
rfingers 7.12502
rthumb 4.10338 -65.042
lclavicle 1.31198e-014 2.38542e-014
lhumerus -41.3928 24.2808 64.7543
lradius 87.7128
lwrist 28.2981
lhand -58.7189 -43.3657
lfingers 7.12502
lthumb -30.9314 -15.9512
rfemur -28.5671 -0.814915 -10.7213
rtibia 22.8887
rfoot -2.89309 -9.47962
rtoes -39.0874
lfemur -5.47588 -9.32356 -13.8045
ltibia 9.74951
lfoot -19.6959 23.8562
ltoes -70.1295
137
root 9.7254 16.1009 4.21148 -146.308 -67.7929 -200.706
lowerback 2.05366 2.41133 -6.88555
upperback 0.641372 3.08581 2.84739
thorax -1.0114 1.56259 6.7358
lowerneck -1.47859 -1.84932 -2.7902
upperneck -3.31956 -2.35559 7.38693
head -0.659177 -1.23345 2.83318
rclavicle -3.57812e-015 2.38542e-014
rhumerus -27.8366 23.1699 -98.8569
rradius 102.56
rwrist 4.16922
rhand -23.0573 -35.3363
rfingers 7.12502
rthumb 3.38781 -65.2891
lclavicle -3.57812e-015 2.38542e-014
lhumerus -41.8184 25.7457 63.0022
lradius 85.9198
lwrist 30.2965
lhand -58.5676 -42.8831
lfingers 7.12502
lthumb -30.7872 -15.4412
rfemur -29.8616 -0.901842 -10.8926
rtibia 25.0078
rfoot -5.4508 -8.58051
rtoes -37.567
lfemur -5.40085 -9.49972 -13.9693
ltibia 9.84868
lfoot -21.571 23.1126
ltoes -68.9527
138
root 9.729 16.0427 4.00203 -145.358 -67.0545 -201.363
lowerback 2.39879 2.30154 -6.57079
upperback 0.712057 2.92263 2.90878
thorax -1.09213 1.47923 6.61606
lowerneck -0.838721 -1.79831 -2.65258
upperneck -4.46702 -2.25185 6.91406
head -1.14603 -1.20944 2.67435
rclavicle -3.57812e-014 -1.74931e-014
rhumerus -26.9219 25.2442 -99.8543
rradius 102.201
rwrist 4.85439
rhand -26.9748 -35.2379
rfingers 7.12502
rthumb -0.39571 -65.2173
lclavicle -3.57812e-014 -1.74931e-014
lhumerus -42.2 27.1971 61.1384
lradius 83.7797
lwrist 32.1809
lhand -58.0751 -42.3114
lfingers 7.12502
lthumb -30.3175 -14.7821
rfemur -31.1667 -1.32087 -10.5334
rtibia 26.8461
rfoot -7.06078 -8.0022
rtoes -40.0245
lfemur -5.40751 -9.91506 -13.9037
ltibia 9.99507
lfoot -23.4384 22.5907
ltoes -67.7862
139
root 9.7366 15.9862 3.78953 -144.814 -66.4117 -201.568
lowerback 2.9509 2.23803 -5.83534
upperback 0.671022 2.82257 2.89427
thorax -1.39231 1.43638 6.16312
lowerneck -0.256866 -1.76827 -2.59442
upperneck -5.40085 -2.19278 6.49189
head -1.55376 -1.19849 2.54777
rclavicle 2.46493e-014 2.22639e-014
rhumerus -26.1455 27.0128 -100.913
rradius 101.78
rwrist 5.76845
rhand -21.6424 -34.2921
rfingers 7.12502
rthumb 4.75406 -64.2187
lclavicle 2.46493e-014 2.22639e-014
lhumerus -42.5819 28.3802 59.1656
lradius 81.3427
lwrist 33.8193
lhand -57.6009 -41.1652
lfingers 7.12502
lthumb -29.865 -13.5536
rfemur -32.1328 -2.24137 -9.73833
rtibia 27.8588
rfoot -8.24506 -7.20851
rtoes -41.3703
lfemur -5.5077 -10.0148 -13.5377
ltibia 10.2242
lfoot -24.2521 22.7049
ltoes -67.4606
140
root 9.74449 15.9379 3.57961 -144.553 -65.7897 -201.402
lowerback 3.50199 2.18344 -4.85825
upperback 0.625918 2.75181 2.92102
thorax -1.69299 1.40359 5.61682
lowerneck 0.213076 -1.71231 -2.97416
upperneck -6.21786 -2.10629 6.36383
head -1.90503 -1.16403 2.59789
rclavicle -7.15625e-015 -9.54166e-015
rhumerus -25.3015 29.038 -101.776
rradius 101.214
rwrist 6.32087
rhand -22.3734 -34.65
rfingers 7.12502
rthumb 4.04819 -64.5912
lclavicle -7.15625e-015 -9.54166e-015
lhumerus -42.9245 29.6641 57.2107
lradius 78.6537
lwrist 35.2311
lhand -57.3251 -39.9278
lfingers 7.12502
lthumb -29.6018 -12.2692
rfemur -33.0214 -2.79204 -8.84107
rtibia 28.5942
rfoot -9.72729 -6.59771
rtoes -41.0021
lfemur -5.64699 -9.80199 -12.9624
ltibia 10.3987
lfoot -24.8318 22.6168
ltoes -67.1098
141
root 9.75016 15.8979 3.37992 -144.738 -65.0623 -200.718
lowerback 3.94939 2.15714 -3.72271
upperback 0.664233 2.73886 2.96918
thorax -1.85161 1.38902 5.00702
lowerneck 0.542495 -1.57951 -3.12549
upperneck -7.00427 -1.92501 6.18268
head -2.23216 -1.08289 2.58492
rclavicle 3.18055e-015 7.95139e-015
rhumerus -24.4502 31.3307 -102.655
rradius 100.561
rwrist 6.71206
rhand -25.9666 -36.9206
rfingers 7.12502
rthumb 0.577999 -66.8996
lclavicle 3.18055e-015 7.95139e-015
lhumerus -43.2646 31.1867 55.29
lradius 75.8713
lwrist 36.5831
lhand -57.0973 -38.6125
lfingers 7.12502
lthumb -29.3844 -10.9155
rfemur -33.9602 -2.83406 -7.9022
rtibia 29.1218
rfoot -11.0695 -6.07889
rtoes -39.3099
lfemur -5.73972 -9.61847 -12.3008
ltibia 10.509
lfoot -25.1856 22.8961
ltoes -66.8554
